<?xml version="1.0" encoding="UTF-8" standalone="no"?>
<!DOCTYPE svg PUBLIC "-//W3C//DTD SVG 1.1//EN" "http://www.w3.org/Graphics/SVG/1.1/DTD/svg11.dtd">
<svg width="100%" height="100%" viewBox="0 0 395 200" version="1.1" xmlns="http://www.w3.org/2000/svg" xmlns:xlink="http://www.w3.org/1999/xlink" xml:space="preserve" xmlns:serif="http://www.serif.com/" style="fill-rule:evenodd;clip-rule:evenodd;stroke-linejoin:round;stroke-miterlimit:2;">
    <g transform="matrix(1,0,0,1,-186.995,-108.218)">
        <g transform="matrix(0.839641,0,0,0.839641,36.4935,-385.957)">
            <g id="Silos">
                <g id="Left-Silo" serif:id="Left Silo" transform="matrix(1,0,0,1,-4,-4)">
                    <path d="M338.105,778.512C324.463,778.684 311.045,778.955 304.97,779.379C299.289,779.777 292.67,781.708 288.298,783.114C284.918,784.201 281.234,785.765 278.74,787.814C276.339,789.787 273.332,795.408 273.332,795.408L261.857,796.833L266.434,658.601L323.688,611.686L340.945,612.089L358.228,626.098L352.761,630.578L337.83,616.962C337.83,616.962 340.932,621.621 341.389,624.301C341.867,627.101 342.117,631.031 340.696,633.763C339.276,636.495 335.868,638.922 332.866,640.695C328.556,643.24 314.836,649.032 314.836,649.032C314.836,649.032 314.36,651.013 326.036,652.218C330.023,652.63 336.617,652.994 342.249,653.355L341.856,665.228C339,664.944 335.991,664.675 332.823,664.427C320.744,663.482 305.813,664.369 297.53,666.727C291.794,668.359 284.813,670.366 281.007,673.338C276.827,676.603 275.82,682.588 275.82,682.588L341.142,686.787L341.069,688.993C324.347,689.21 306.092,689.795 298.396,691.247C293.175,692.232 287.423,694.699 284.112,696.821C281.817,698.292 278.319,702.092 277.09,704.331C275.885,706.527 275.051,711.563 275.051,711.563L340.182,715.789L340.131,717.332C325.479,717.269 310.363,717.604 303.599,719.015C298.462,720.086 288.587,723.282 284.94,725.15C282.224,726.541 278.48,729.042 277.036,731.54C275.1,734.89 274.146,740.812 274.146,740.812L339.207,745.239L339.133,747.478C322.857,747.652 305.731,748.317 298.25,750.186C293.238,751.438 289.51,751.916 285.93,753.32C282.796,754.548 279.639,757.375 277.369,759.86C273.313,764.301 273.777,770.997 273.777,770.997L338.205,775.5L338.105,778.512ZM403.511,786.833L403.875,796.096L392.228,794.945L391.969,786.833L403.511,786.833Z" style="fill:rgb(8,56,110);"/>
                </g>
                <g id="Right-Silo" serif:id="Right Silo" transform="matrix(1,0,0,1,4,-4)">
                    <path d="M442.165,786.833C441.692,787.147 441.245,787.474 440.831,787.814C438.43,789.787 435.423,795.408 435.423,795.408L423.948,796.833L424.279,786.833L442.165,786.833ZM489.431,774.741L539.294,778.225C539.294,778.225 511.479,778.287 489.59,778.67L489.431,774.741ZM488.201,744.348L538.052,747.74C538.052,747.74 511.226,747.04 488.338,747.732L488.201,744.348ZM487.005,714.798L537.778,718.092C537.778,718.092 509.165,716.969 487.112,717.44L487.005,714.798ZM485.826,685.668L536.774,688.943C536.774,688.943 508.839,688.628 485.975,689.364L485.826,685.668ZM468.023,626.236L485.779,611.686L503.036,612.089L560.566,658.722L565.966,796.096L554.319,794.945L550.472,674.335C550.472,674.335 536.191,667.658 494.913,664.427C491.733,664.178 488.354,664.056 484.951,664.055L484.453,651.76C485.52,651.92 486.737,652.075 488.127,652.218C493.763,652.8 504.608,653.287 510.582,653.804C516.242,654.295 524.184,655.21 529.798,656.082C535.772,657.01 546.429,659.374 546.429,659.374L499.92,616.962C499.92,616.962 503.023,621.621 503.48,624.301C503.958,627.101 504.208,631.031 502.787,633.763C501.367,636.495 497.959,638.922 494.957,640.695C492.782,641.979 488.21,644.091 484.214,645.867L483.95,639.328L468.023,626.236Z" style="fill:rgb(57,198,234);"/>
                </g>
                <g id="Silo" transform="matrix(1,0,0,1,0,257.596)">
                    <path d="M350.119,527.711L337.83,529.237L342.731,381.201L404.046,330.958L422.527,331.39L484.138,381.33L489.921,528.448L477.447,527.215L473.328,398.051C473.328,398.051 458.034,390.901 413.829,387.44C400.894,386.428 384.903,387.378 376.032,389.903C369.889,391.651 362.414,393.801 358.338,396.983C353.862,400.479 352.782,406.889 352.782,406.889L458.658,413.695C458.658,413.695 393.907,412.965 376.96,416.163C371.369,417.218 365.209,419.859 361.662,422.132C359.205,423.707 355.459,427.777 354.143,430.174C352.853,432.525 351.96,437.919 351.96,437.919L459.734,444.911C459.734,444.911 398.74,442.518 382.532,445.899C377.031,447.047 366.455,450.469 362.55,452.47C359.641,453.96 355.631,456.638 354.085,459.313C352.011,462.9 350.99,469.243 350.99,469.243L460.027,476.662C460.027,476.662 394.164,474.945 376.804,479.281C371.437,480.622 367.444,481.134 363.61,482.637C360.254,483.953 356.873,486.981 354.442,489.642C350.098,494.397 350.595,501.569 350.595,501.569L461.356,509.31C461.356,509.31 399.72,509.447 384,510.546C377.916,510.971 370.828,513.04 366.146,514.545C362.526,515.709 358.581,517.384 355.91,519.578C353.339,521.691 350.119,527.711 350.119,527.711ZM394.566,370.953C394.566,370.953 394.057,373.074 406.561,374.365C412.596,374.988 424.211,375.51 430.608,376.064C436.67,376.589 445.175,377.569 451.187,378.503C457.585,379.497 468.998,382.028 468.998,382.028L419.191,336.608C419.191,336.608 422.513,341.597 423.003,344.468C423.514,347.466 423.782,351.675 422.261,354.601C420.739,357.527 417.09,360.126 413.875,362.024C409.259,364.75 394.566,370.953 394.566,370.953Z" style="fill:rgb(15,87,170);"/>
                </g>
                <g id="Ground" transform="matrix(1,0,0,1,-0.279618,256.151)">
                    <path d="M179.525,569.385C179.525,569.385 226.576,558.212 247.788,554.392C267.321,550.875 287.913,548.455 306.799,546.467C324.849,544.567 342.969,543.256 361.101,542.463C381.617,541.565 407.469,540.791 429.893,541.08C451.833,541.363 475.55,542.737 495.644,544.197C513.964,545.528 533.319,547.585 550.459,549.838C566.542,551.953 582.611,554.363 598.483,557.715C614.87,561.175 648.784,570.6 648.784,570.6C648.784,570.6 627.352,559.601 616.123,555.307C604.071,550.697 589.879,546.39 576.469,542.942C562.476,539.344 544.99,536.002 532.163,533.718C521.346,531.792 510.44,530.335 499.507,529.237C487.051,527.986 470.885,526.902 457.424,526.212C444.541,525.55 431.64,525.131 418.739,525.092C404.186,525.049 384.741,525.259 370.106,525.949C357.015,526.567 343.684,527.822 330.928,529.237C318.431,530.624 305.954,532.284 293.567,534.439C280.691,536.68 266.631,539.452 253.671,542.68C240.904,545.86 228.16,549.356 215.802,553.807C203.444,558.258 179.525,569.385 179.525,569.385Z" style="fill:rgb(15,87,170);"/>
                </g>
            </g>
        </g>
    </g>
</svg>
